<mxfile host="app.diagrams.net" modified="2023-06-08T13:11:22.740Z" agent="Mozilla/5.0 (Windows NT 10.0; Win64; x64) AppleWebKit/537.36 (KHTML, like Gecko) Chrome/114.0.0.0 Safari/537.36" etag="pZxa3lInPcnuTMyJiiS-" version="21.3.7" type="device">
  <diagram name="Page-1" id="GDOZEJyfgxlS2cqkjpIj">
    <mxGraphModel dx="2293" dy="544" grid="1" gridSize="10" guides="1" tooltips="1" connect="1" arrows="1" fold="1" page="1" pageScale="1" pageWidth="827" pageHeight="1169" math="0" shadow="0">
      <root>
        <mxCell id="0" />
        <mxCell id="1" parent="0" />
        <mxCell id="N4sue3P5oRfbI1obboS5-92" value="" style="rounded=0;whiteSpace=wrap;html=1;rotation=90;fillColor=none;dashed=1;" vertex="1" parent="1">
          <mxGeometry x="299.63" width="59.75" height="265.5" as="geometry" />
        </mxCell>
        <mxCell id="N4sue3P5oRfbI1obboS5-147" value="" style="text;html=1;strokeColor=#6c8ebf;fillColor=#dae8fc;align=center;verticalAlign=middle;whiteSpace=wrap;rounded=0;glass=0;shadow=0;" vertex="1" parent="1">
          <mxGeometry x="717" y="400" width="100" height="20" as="geometry" />
        </mxCell>
        <mxCell id="N4sue3P5oRfbI1obboS5-152" value="" style="rounded=0;whiteSpace=wrap;html=1;strokeWidth=0.5;" vertex="1" parent="1">
          <mxGeometry x="717" y="530" width="100" height="20" as="geometry" />
        </mxCell>
        <mxCell id="N4sue3P5oRfbI1obboS5-153" value="" style="text;html=1;strokeColor=#6c8ebf;fillColor=#dae8fc;align=center;verticalAlign=middle;whiteSpace=wrap;rounded=0;glass=0;shadow=0;" vertex="1" parent="1">
          <mxGeometry x="717" y="550" width="100" height="20" as="geometry" />
        </mxCell>
        <mxCell id="N4sue3P5oRfbI1obboS5-150" value="" style="rounded=0;whiteSpace=wrap;html=1;strokeWidth=0.5;" vertex="1" parent="1">
          <mxGeometry x="717" y="480" width="100" height="20" as="geometry" />
        </mxCell>
        <mxCell id="N4sue3P5oRfbI1obboS5-151" value="" style="text;html=1;strokeColor=#6c8ebf;fillColor=#dae8fc;align=center;verticalAlign=middle;whiteSpace=wrap;rounded=0;glass=0;shadow=0;" vertex="1" parent="1">
          <mxGeometry x="717" y="500" width="100" height="20" as="geometry" />
        </mxCell>
        <mxCell id="N4sue3P5oRfbI1obboS5-148" value="" style="rounded=0;whiteSpace=wrap;html=1;strokeWidth=0.5;" vertex="1" parent="1">
          <mxGeometry x="717" y="430" width="100" height="20" as="geometry" />
        </mxCell>
        <mxCell id="N4sue3P5oRfbI1obboS5-149" value="" style="text;html=1;strokeColor=#6c8ebf;fillColor=#dae8fc;align=center;verticalAlign=middle;whiteSpace=wrap;rounded=0;glass=0;shadow=0;" vertex="1" parent="1">
          <mxGeometry x="717" y="450" width="100" height="20" as="geometry" />
        </mxCell>
        <mxCell id="N4sue3P5oRfbI1obboS5-146" value="" style="rounded=0;whiteSpace=wrap;html=1;strokeWidth=0.5;" vertex="1" parent="1">
          <mxGeometry x="717" y="380" width="100" height="20" as="geometry" />
        </mxCell>
        <mxCell id="N4sue3P5oRfbI1obboS5-144" value="" style="rounded=0;whiteSpace=wrap;html=1;strokeWidth=0.5;" vertex="1" parent="1">
          <mxGeometry x="717" y="330" width="100" height="20" as="geometry" />
        </mxCell>
        <mxCell id="N4sue3P5oRfbI1obboS5-145" value="" style="text;html=1;strokeColor=#6c8ebf;fillColor=#dae8fc;align=center;verticalAlign=middle;whiteSpace=wrap;rounded=0;glass=0;shadow=0;" vertex="1" parent="1">
          <mxGeometry x="717" y="350" width="100" height="20" as="geometry" />
        </mxCell>
        <mxCell id="N4sue3P5oRfbI1obboS5-140" value="" style="rounded=0;whiteSpace=wrap;html=1;strokeWidth=0.5;" vertex="1" parent="1">
          <mxGeometry x="367" y="330" width="100" height="20" as="geometry" />
        </mxCell>
        <mxCell id="N4sue3P5oRfbI1obboS5-141" value="" style="text;html=1;strokeColor=#6c8ebf;fillColor=#dae8fc;align=center;verticalAlign=middle;whiteSpace=wrap;rounded=0;glass=0;shadow=0;" vertex="1" parent="1">
          <mxGeometry x="367" y="350" width="100" height="20" as="geometry" />
        </mxCell>
        <mxCell id="N4sue3P5oRfbI1obboS5-138" value="" style="rounded=0;whiteSpace=wrap;html=1;strokeWidth=0.5;" vertex="1" parent="1">
          <mxGeometry x="367" y="380" width="100" height="20" as="geometry" />
        </mxCell>
        <mxCell id="N4sue3P5oRfbI1obboS5-139" value="" style="text;html=1;strokeColor=#6c8ebf;fillColor=#dae8fc;align=center;verticalAlign=middle;whiteSpace=wrap;rounded=0;glass=0;shadow=0;" vertex="1" parent="1">
          <mxGeometry x="367" y="400" width="100" height="20" as="geometry" />
        </mxCell>
        <mxCell id="N4sue3P5oRfbI1obboS5-136" value="" style="rounded=0;whiteSpace=wrap;html=1;strokeWidth=0.5;" vertex="1" parent="1">
          <mxGeometry x="367" y="430" width="100" height="20" as="geometry" />
        </mxCell>
        <mxCell id="N4sue3P5oRfbI1obboS5-137" value="" style="text;html=1;strokeColor=#6c8ebf;fillColor=#dae8fc;align=center;verticalAlign=middle;whiteSpace=wrap;rounded=0;glass=0;shadow=0;" vertex="1" parent="1">
          <mxGeometry x="367" y="450" width="100" height="20" as="geometry" />
        </mxCell>
        <mxCell id="N4sue3P5oRfbI1obboS5-134" value="" style="rounded=0;whiteSpace=wrap;html=1;strokeWidth=0.5;" vertex="1" parent="1">
          <mxGeometry x="367" y="480" width="100" height="20" as="geometry" />
        </mxCell>
        <mxCell id="N4sue3P5oRfbI1obboS5-135" value="" style="text;html=1;strokeColor=#6c8ebf;fillColor=#dae8fc;align=center;verticalAlign=middle;whiteSpace=wrap;rounded=0;glass=0;shadow=0;" vertex="1" parent="1">
          <mxGeometry x="367" y="500" width="100" height="20" as="geometry" />
        </mxCell>
        <mxCell id="N4sue3P5oRfbI1obboS5-130" value="" style="rounded=0;whiteSpace=wrap;html=1;strokeWidth=0.5;" vertex="1" parent="1">
          <mxGeometry x="537" y="595" width="100" height="20" as="geometry" />
        </mxCell>
        <mxCell id="N4sue3P5oRfbI1obboS5-131" value="" style="text;html=1;strokeColor=#6c8ebf;fillColor=#dae8fc;align=center;verticalAlign=middle;whiteSpace=wrap;rounded=0;glass=0;shadow=0;" vertex="1" parent="1">
          <mxGeometry x="537" y="615" width="100" height="20" as="geometry" />
        </mxCell>
        <mxCell id="N4sue3P5oRfbI1obboS5-125" value="" style="rounded=0;whiteSpace=wrap;html=1;strokeWidth=0.5;" vertex="1" parent="1">
          <mxGeometry x="367" y="530" width="100" height="20" as="geometry" />
        </mxCell>
        <mxCell id="N4sue3P5oRfbI1obboS5-126" value="" style="text;html=1;strokeColor=#6c8ebf;fillColor=#dae8fc;align=center;verticalAlign=middle;whiteSpace=wrap;rounded=0;glass=0;shadow=0;" vertex="1" parent="1">
          <mxGeometry x="367" y="550" width="100" height="20" as="geometry" />
        </mxCell>
        <mxCell id="hwnmMmYKBhUjS9BTgZ3Y-77" value="" style="rounded=0;whiteSpace=wrap;html=1;strokeWidth=0.5;" parent="1" vertex="1">
          <mxGeometry x="187" y="530" width="100" height="20" as="geometry" />
        </mxCell>
        <mxCell id="hwnmMmYKBhUjS9BTgZ3Y-76" value="" style="rounded=0;whiteSpace=wrap;html=1;strokeWidth=0.5;" parent="1" vertex="1">
          <mxGeometry x="187" y="480" width="100" height="20" as="geometry" />
        </mxCell>
        <mxCell id="hwnmMmYKBhUjS9BTgZ3Y-75" value="" style="rounded=0;whiteSpace=wrap;html=1;strokeWidth=0.5;" parent="1" vertex="1">
          <mxGeometry x="187" y="430" width="100" height="20" as="geometry" />
        </mxCell>
        <mxCell id="N4sue3P5oRfbI1obboS5-114" value="" style="text;html=1;strokeColor=#6c8ebf;fillColor=#dae8fc;align=center;verticalAlign=middle;whiteSpace=wrap;rounded=0;glass=0;shadow=0;" vertex="1" parent="1">
          <mxGeometry x="187" y="550" width="100" height="20" as="geometry" />
        </mxCell>
        <mxCell id="N4sue3P5oRfbI1obboS5-113" value="" style="text;html=1;strokeColor=#6c8ebf;fillColor=#dae8fc;align=center;verticalAlign=middle;whiteSpace=wrap;rounded=0;glass=0;shadow=0;" vertex="1" parent="1">
          <mxGeometry x="187" y="500" width="100" height="20" as="geometry" />
        </mxCell>
        <mxCell id="N4sue3P5oRfbI1obboS5-112" value="" style="text;html=1;strokeColor=#6c8ebf;fillColor=#dae8fc;align=center;verticalAlign=middle;whiteSpace=wrap;rounded=0;glass=0;shadow=0;" vertex="1" parent="1">
          <mxGeometry x="187" y="450" width="100" height="20" as="geometry" />
        </mxCell>
        <mxCell id="hwnmMmYKBhUjS9BTgZ3Y-64" value="" style="rounded=0;whiteSpace=wrap;html=1;strokeWidth=0.5;" parent="1" vertex="1">
          <mxGeometry x="187" y="380" width="100" height="20" as="geometry" />
        </mxCell>
        <mxCell id="N4sue3P5oRfbI1obboS5-111" value="" style="text;html=1;strokeColor=#6c8ebf;fillColor=#dae8fc;align=center;verticalAlign=middle;whiteSpace=wrap;rounded=0;glass=0;shadow=0;" vertex="1" parent="1">
          <mxGeometry x="187" y="400" width="100" height="20" as="geometry" />
        </mxCell>
        <mxCell id="hwnmMmYKBhUjS9BTgZ3Y-58" value="" style="rounded=0;whiteSpace=wrap;html=1;strokeWidth=0.5;" parent="1" vertex="1">
          <mxGeometry x="187" y="330" width="100" height="20" as="geometry" />
        </mxCell>
        <mxCell id="N4sue3P5oRfbI1obboS5-110" value="" style="text;html=1;strokeColor=#6c8ebf;fillColor=#dae8fc;align=center;verticalAlign=middle;whiteSpace=wrap;rounded=0;glass=0;shadow=0;" vertex="1" parent="1">
          <mxGeometry x="187" y="350" width="100" height="20" as="geometry" />
        </mxCell>
        <mxCell id="N4sue3P5oRfbI1obboS5-103" value="" style="rounded=0;whiteSpace=wrap;html=1;strokeWidth=0.5;" vertex="1" parent="1">
          <mxGeometry x="7" y="595" width="100" height="20" as="geometry" />
        </mxCell>
        <mxCell id="hwnmMmYKBhUjS9BTgZ3Y-67" value="" style="rounded=0;whiteSpace=wrap;html=1;strokeWidth=0.5;" parent="1" vertex="1">
          <mxGeometry x="-163" y="430" width="100" height="20" as="geometry" />
        </mxCell>
        <mxCell id="hwnmMmYKBhUjS9BTgZ3Y-55" value="" style="rounded=0;whiteSpace=wrap;html=1;strokeWidth=0.5;" parent="1" vertex="1">
          <mxGeometry x="-163" y="330" width="100" height="20" as="geometry" />
        </mxCell>
        <mxCell id="N4sue3P5oRfbI1obboS5-94" value="" style="text;html=1;strokeColor=#6c8ebf;fillColor=#dae8fc;align=center;verticalAlign=middle;whiteSpace=wrap;rounded=0;glass=0;shadow=0;" vertex="1" parent="1">
          <mxGeometry x="-163" y="350" width="100" height="20" as="geometry" />
        </mxCell>
        <mxCell id="hwnmMmYKBhUjS9BTgZ3Y-9" style="edgeStyle=orthogonalEdgeStyle;rounded=1;orthogonalLoop=1;jettySize=auto;html=1;exitX=1;exitY=0.5;exitDx=0;exitDy=0;entryX=0;entryY=0.5;entryDx=0;entryDy=0;" parent="1" source="hwnmMmYKBhUjS9BTgZ3Y-3" edge="1">
          <mxGeometry relative="1" as="geometry">
            <mxPoint x="727" y="220" as="targetPoint" />
          </mxGeometry>
        </mxCell>
        <mxCell id="hwnmMmYKBhUjS9BTgZ3Y-10" style="edgeStyle=orthogonalEdgeStyle;rounded=1;orthogonalLoop=1;jettySize=auto;html=1;exitX=0;exitY=0.5;exitDx=0;exitDy=0;entryX=1;entryY=0.5;entryDx=0;entryDy=0;" parent="1" source="hwnmMmYKBhUjS9BTgZ3Y-3" edge="1">
          <mxGeometry relative="1" as="geometry">
            <mxPoint x="-73.0000000000025" y="220.00000000000006" as="targetPoint" />
          </mxGeometry>
        </mxCell>
        <mxCell id="hwnmMmYKBhUjS9BTgZ3Y-82" style="edgeStyle=orthogonalEdgeStyle;rounded=1;orthogonalLoop=1;jettySize=auto;html=1;exitX=0;exitY=1;exitDx=0;exitDy=0;entryX=0.5;entryY=0;entryDx=0;entryDy=0;" parent="1" source="hwnmMmYKBhUjS9BTgZ3Y-3" target="hwnmMmYKBhUjS9BTgZ3Y-52" edge="1">
          <mxGeometry relative="1" as="geometry">
            <Array as="points">
              <mxPoint x="299" y="230" />
              <mxPoint x="57" y="230" />
            </Array>
          </mxGeometry>
        </mxCell>
        <mxCell id="hwnmMmYKBhUjS9BTgZ3Y-134" style="edgeStyle=orthogonalEdgeStyle;rounded=1;orthogonalLoop=1;jettySize=auto;html=1;exitX=1;exitY=0.5;exitDx=0;exitDy=0;entryX=0.5;entryY=0;entryDx=0;entryDy=0;" parent="1" source="hwnmMmYKBhUjS9BTgZ3Y-3" target="hwnmMmYKBhUjS9BTgZ3Y-170" edge="1">
          <mxGeometry relative="1" as="geometry">
            <mxPoint x="574" y="250" as="targetPoint" />
            <Array as="points">
              <mxPoint x="357" y="220" />
              <mxPoint x="357" y="230" />
              <mxPoint x="587" y="230" />
            </Array>
          </mxGeometry>
        </mxCell>
        <mxCell id="hwnmMmYKBhUjS9BTgZ3Y-3" value="" style="ellipse;whiteSpace=wrap;html=1;aspect=fixed;rounded=1;fillColor=#fff2cc;strokeColor=#d6b656;" parent="1" vertex="1">
          <mxGeometry x="287" y="180" width="80" height="80" as="geometry" />
        </mxCell>
        <mxCell id="hwnmMmYKBhUjS9BTgZ3Y-7" value="ns1:hasRecipeName" style="text;html=1;strokeColor=none;fillColor=none;align=center;verticalAlign=middle;whiteSpace=wrap;rounded=1;" parent="1" vertex="1">
          <mxGeometry x="517" y="190" width="60" height="30" as="geometry" />
        </mxCell>
        <mxCell id="hwnmMmYKBhUjS9BTgZ3Y-11" value="ns1:hasRecipeID" style="text;html=1;strokeColor=none;fillColor=none;align=center;verticalAlign=middle;whiteSpace=wrap;rounded=1;" parent="1" vertex="1">
          <mxGeometry x="77" y="190" width="60" height="30" as="geometry" />
        </mxCell>
        <mxCell id="hwnmMmYKBhUjS9BTgZ3Y-65" style="edgeStyle=orthogonalEdgeStyle;rounded=1;orthogonalLoop=1;jettySize=auto;html=1;exitX=0;exitY=0.5;exitDx=0;exitDy=0;entryX=0.5;entryY=0;entryDx=0;entryDy=0;" parent="1" source="hwnmMmYKBhUjS9BTgZ3Y-52" target="hwnmMmYKBhUjS9BTgZ3Y-55" edge="1">
          <mxGeometry relative="1" as="geometry">
            <Array as="points">
              <mxPoint x="-113" y="290" />
            </Array>
          </mxGeometry>
        </mxCell>
        <mxCell id="hwnmMmYKBhUjS9BTgZ3Y-66" style="edgeStyle=orthogonalEdgeStyle;rounded=1;orthogonalLoop=1;jettySize=auto;html=1;exitX=0;exitY=0.5;exitDx=0;exitDy=0;entryX=1;entryY=0;entryDx=0;entryDy=0;" parent="1" source="hwnmMmYKBhUjS9BTgZ3Y-52" target="N4sue3P5oRfbI1obboS5-95" edge="1">
          <mxGeometry relative="1" as="geometry">
            <Array as="points">
              <mxPoint x="17" y="400" />
            </Array>
          </mxGeometry>
        </mxCell>
        <mxCell id="hwnmMmYKBhUjS9BTgZ3Y-71" style="edgeStyle=orthogonalEdgeStyle;rounded=1;orthogonalLoop=1;jettySize=auto;html=1;exitX=0;exitY=0.5;exitDx=0;exitDy=0;entryX=1;entryY=0;entryDx=0;entryDy=0;" parent="1" source="hwnmMmYKBhUjS9BTgZ3Y-52" target="N4sue3P5oRfbI1obboS5-96" edge="1">
          <mxGeometry relative="1" as="geometry">
            <Array as="points">
              <mxPoint x="27" y="290" />
              <mxPoint x="27" y="450" />
            </Array>
          </mxGeometry>
        </mxCell>
        <mxCell id="hwnmMmYKBhUjS9BTgZ3Y-72" style="edgeStyle=orthogonalEdgeStyle;rounded=1;orthogonalLoop=1;jettySize=auto;html=1;exitX=0;exitY=0.5;exitDx=0;exitDy=0;entryX=1;entryY=0;entryDx=0;entryDy=0;" parent="1" source="hwnmMmYKBhUjS9BTgZ3Y-52" target="N4sue3P5oRfbI1obboS5-99" edge="1">
          <mxGeometry relative="1" as="geometry">
            <Array as="points">
              <mxPoint x="37" y="290" />
              <mxPoint x="37" y="500" />
            </Array>
            <mxPoint x="-60" y="500" as="targetPoint" />
          </mxGeometry>
        </mxCell>
        <mxCell id="hwnmMmYKBhUjS9BTgZ3Y-73" style="edgeStyle=orthogonalEdgeStyle;rounded=1;orthogonalLoop=1;jettySize=auto;html=1;exitX=0;exitY=0.5;exitDx=0;exitDy=0;entryX=1;entryY=0;entryDx=0;entryDy=0;" parent="1" source="hwnmMmYKBhUjS9BTgZ3Y-52" target="N4sue3P5oRfbI1obboS5-101" edge="1">
          <mxGeometry relative="1" as="geometry">
            <Array as="points">
              <mxPoint x="47" y="290" />
              <mxPoint x="47" y="550" />
            </Array>
          </mxGeometry>
        </mxCell>
        <mxCell id="hwnmMmYKBhUjS9BTgZ3Y-74" style="edgeStyle=orthogonalEdgeStyle;rounded=1;orthogonalLoop=1;jettySize=auto;html=1;exitX=0;exitY=0.5;exitDx=0;exitDy=0;entryX=0.5;entryY=0;entryDx=0;entryDy=0;" parent="1" source="hwnmMmYKBhUjS9BTgZ3Y-52" edge="1">
          <mxGeometry relative="1" as="geometry">
            <Array as="points">
              <mxPoint x="57" y="290" />
            </Array>
            <mxPoint x="57" y="595" as="targetPoint" />
          </mxGeometry>
        </mxCell>
        <mxCell id="hwnmMmYKBhUjS9BTgZ3Y-78" style="edgeStyle=orthogonalEdgeStyle;rounded=1;orthogonalLoop=1;jettySize=auto;html=1;exitX=1;exitY=0.5;exitDx=0;exitDy=0;entryX=0.5;entryY=0;entryDx=0;entryDy=0;" parent="1" source="hwnmMmYKBhUjS9BTgZ3Y-52" target="hwnmMmYKBhUjS9BTgZ3Y-58" edge="1">
          <mxGeometry relative="1" as="geometry">
            <Array as="points">
              <mxPoint x="237" y="290" />
            </Array>
          </mxGeometry>
        </mxCell>
        <mxCell id="hwnmMmYKBhUjS9BTgZ3Y-83" style="edgeStyle=orthogonalEdgeStyle;rounded=1;orthogonalLoop=1;jettySize=auto;html=1;exitX=1;exitY=0.5;exitDx=0;exitDy=0;entryX=0;entryY=0;entryDx=0;entryDy=0;" parent="1" source="hwnmMmYKBhUjS9BTgZ3Y-52" target="N4sue3P5oRfbI1obboS5-111" edge="1">
          <mxGeometry relative="1" as="geometry">
            <Array as="points">
              <mxPoint x="97" y="400" />
            </Array>
          </mxGeometry>
        </mxCell>
        <mxCell id="hwnmMmYKBhUjS9BTgZ3Y-84" style="edgeStyle=orthogonalEdgeStyle;rounded=1;orthogonalLoop=1;jettySize=auto;html=1;exitX=1;exitY=0.5;exitDx=0;exitDy=0;entryX=0;entryY=1;entryDx=0;entryDy=0;" parent="1" source="hwnmMmYKBhUjS9BTgZ3Y-52" target="hwnmMmYKBhUjS9BTgZ3Y-75" edge="1">
          <mxGeometry relative="1" as="geometry">
            <Array as="points">
              <mxPoint x="87" y="290" />
              <mxPoint x="87" y="450" />
            </Array>
          </mxGeometry>
        </mxCell>
        <mxCell id="hwnmMmYKBhUjS9BTgZ3Y-85" style="edgeStyle=orthogonalEdgeStyle;rounded=1;orthogonalLoop=1;jettySize=auto;html=1;exitX=1;exitY=0.5;exitDx=0;exitDy=0;entryX=0;entryY=0;entryDx=0;entryDy=0;" parent="1" source="hwnmMmYKBhUjS9BTgZ3Y-52" target="N4sue3P5oRfbI1obboS5-113" edge="1">
          <mxGeometry relative="1" as="geometry">
            <Array as="points">
              <mxPoint x="77" y="290" />
              <mxPoint x="77" y="500" />
            </Array>
          </mxGeometry>
        </mxCell>
        <mxCell id="hwnmMmYKBhUjS9BTgZ3Y-86" style="edgeStyle=orthogonalEdgeStyle;rounded=1;orthogonalLoop=1;jettySize=auto;html=1;exitX=1;exitY=0.5;exitDx=0;exitDy=0;entryX=0;entryY=0;entryDx=0;entryDy=0;" parent="1" source="hwnmMmYKBhUjS9BTgZ3Y-52" target="N4sue3P5oRfbI1obboS5-114" edge="1">
          <mxGeometry relative="1" as="geometry">
            <Array as="points">
              <mxPoint x="67" y="290" />
              <mxPoint x="67" y="550" />
            </Array>
            <mxPoint x="190" y="550" as="targetPoint" />
          </mxGeometry>
        </mxCell>
        <mxCell id="hwnmMmYKBhUjS9BTgZ3Y-52" value="" style="ellipse;whiteSpace=wrap;html=1;aspect=fixed;rounded=1;fillColor=#d5e8d4;strokeColor=#82b366;" parent="1" vertex="1">
          <mxGeometry x="17" y="250" width="80" height="80" as="geometry" />
        </mxCell>
        <mxCell id="hwnmMmYKBhUjS9BTgZ3Y-63" value="" style="rounded=0;whiteSpace=wrap;html=1;strokeWidth=0.5;" parent="1" vertex="1">
          <mxGeometry x="-163" y="380" width="100" height="20" as="geometry" />
        </mxCell>
        <mxCell id="hwnmMmYKBhUjS9BTgZ3Y-68" value="" style="rounded=0;whiteSpace=wrap;html=1;strokeWidth=0.5;" parent="1" vertex="1">
          <mxGeometry x="-163" y="480" width="100" height="20" as="geometry" />
        </mxCell>
        <mxCell id="hwnmMmYKBhUjS9BTgZ3Y-69" value="" style="rounded=0;whiteSpace=wrap;html=1;strokeWidth=0.5;" parent="1" vertex="1">
          <mxGeometry x="-163" y="530" width="100" height="20" as="geometry" />
        </mxCell>
        <mxCell id="hwnmMmYKBhUjS9BTgZ3Y-136" value="ns1:hasIngredientName" style="text;html=1;strokeColor=none;fillColor=none;align=center;verticalAlign=middle;whiteSpace=wrap;rounded=1;" parent="1" vertex="1">
          <mxGeometry x="137" y="260" width="60" height="30" as="geometry" />
        </mxCell>
        <mxCell id="hwnmMmYKBhUjS9BTgZ3Y-137" value="ns1:hasQuantityOf" style="text;html=1;strokeColor=none;fillColor=none;align=center;verticalAlign=middle;whiteSpace=wrap;rounded=1;" parent="1" vertex="1">
          <mxGeometry x="-73" y="260" width="60" height="30" as="geometry" />
        </mxCell>
        <mxCell id="hwnmMmYKBhUjS9BTgZ3Y-138" value="ns1:hasFat" style="text;html=1;strokeColor=none;fillColor=none;align=center;verticalAlign=middle;whiteSpace=wrap;rounded=1;" parent="1" vertex="1">
          <mxGeometry x="-53" y="370" width="60" height="30" as="geometry" />
        </mxCell>
        <mxCell id="hwnmMmYKBhUjS9BTgZ3Y-139" value="ns1:hasCarb" style="text;html=1;strokeColor=none;fillColor=none;align=center;verticalAlign=middle;whiteSpace=wrap;rounded=1;" parent="1" vertex="1">
          <mxGeometry x="107" y="370" width="60" height="30" as="geometry" />
        </mxCell>
        <mxCell id="hwnmMmYKBhUjS9BTgZ3Y-140" value="ns1:hasFatness" style="text;html=1;strokeColor=none;fillColor=none;align=center;verticalAlign=middle;whiteSpace=wrap;rounded=1;" parent="1" vertex="1">
          <mxGeometry x="-47" y="420" width="60" height="30" as="geometry" />
        </mxCell>
        <mxCell id="hwnmMmYKBhUjS9BTgZ3Y-141" value="ns1:hasProtein" style="text;html=1;strokeColor=none;fillColor=none;align=center;verticalAlign=middle;whiteSpace=wrap;rounded=1;" parent="1" vertex="1">
          <mxGeometry x="107" y="420" width="60" height="30" as="geometry" />
        </mxCell>
        <mxCell id="hwnmMmYKBhUjS9BTgZ3Y-142" value="ns1:hasBitterness" style="text;html=1;strokeColor=none;fillColor=none;align=center;verticalAlign=middle;whiteSpace=wrap;rounded=1;" parent="1" vertex="1">
          <mxGeometry x="-42" y="470" width="60" height="30" as="geometry" />
        </mxCell>
        <mxCell id="hwnmMmYKBhUjS9BTgZ3Y-143" value="ns1:hasSaltness" style="text;html=1;strokeColor=none;fillColor=none;align=center;verticalAlign=middle;whiteSpace=wrap;rounded=1;" parent="1" vertex="1">
          <mxGeometry x="97" y="470" width="60" height="30" as="geometry" />
        </mxCell>
        <mxCell id="hwnmMmYKBhUjS9BTgZ3Y-144" value="ns1:hasSourness" style="text;html=1;strokeColor=none;fillColor=none;align=center;verticalAlign=middle;whiteSpace=wrap;rounded=1;" parent="1" vertex="1">
          <mxGeometry x="-33" y="520" width="60" height="30" as="geometry" />
        </mxCell>
        <mxCell id="hwnmMmYKBhUjS9BTgZ3Y-145" value="ns1:hasSweetness" style="text;html=1;strokeColor=none;fillColor=none;align=center;verticalAlign=middle;whiteSpace=wrap;rounded=1;" parent="1" vertex="1">
          <mxGeometry x="97" y="520" width="60" height="30" as="geometry" />
        </mxCell>
        <mxCell id="hwnmMmYKBhUjS9BTgZ3Y-146" value="ns1:hasUmaminess" style="text;html=1;strokeColor=none;fillColor=none;align=center;verticalAlign=middle;whiteSpace=wrap;rounded=1;" parent="1" vertex="1">
          <mxGeometry x="87" y="565" width="60" height="30" as="geometry" />
        </mxCell>
        <mxCell id="hwnmMmYKBhUjS9BTgZ3Y-147" value="1.0" style="text;html=1;strokeColor=none;fillColor=none;align=center;verticalAlign=middle;whiteSpace=wrap;rounded=1;" parent="1" vertex="1">
          <mxGeometry x="-143" y="340" width="60" height="40" as="geometry" />
        </mxCell>
        <mxCell id="hwnmMmYKBhUjS9BTgZ3Y-152" value="spinach" style="text;html=1;strokeColor=none;fillColor=none;align=center;verticalAlign=middle;whiteSpace=wrap;rounded=1;" parent="1" vertex="1">
          <mxGeometry x="207" y="345" width="60" height="30" as="geometry" />
        </mxCell>
        <mxCell id="hwnmMmYKBhUjS9BTgZ3Y-154" value="0.8" style="text;html=1;strokeColor=none;fillColor=none;align=center;verticalAlign=middle;whiteSpace=wrap;rounded=1;" parent="1" vertex="1">
          <mxGeometry x="207" y="395" width="60" height="30" as="geometry" />
        </mxCell>
        <mxCell id="hwnmMmYKBhUjS9BTgZ3Y-155" value="1.8" style="text;html=1;strokeColor=none;fillColor=none;align=center;verticalAlign=middle;whiteSpace=wrap;rounded=1;" parent="1" vertex="1">
          <mxGeometry x="207" y="445" width="60" height="30" as="geometry" />
        </mxCell>
        <mxCell id="hwnmMmYKBhUjS9BTgZ3Y-156" value="4" style="text;html=1;strokeColor=none;fillColor=none;align=center;verticalAlign=middle;whiteSpace=wrap;rounded=1;" parent="1" vertex="1">
          <mxGeometry x="207" y="495" width="60" height="30" as="geometry" />
        </mxCell>
        <mxCell id="hwnmMmYKBhUjS9BTgZ3Y-157" value="7" style="text;html=1;strokeColor=none;fillColor=none;align=center;verticalAlign=middle;whiteSpace=wrap;rounded=1;" parent="1" vertex="1">
          <mxGeometry x="207" y="545" width="60" height="30" as="geometry" />
        </mxCell>
        <mxCell id="hwnmMmYKBhUjS9BTgZ3Y-159" style="edgeStyle=orthogonalEdgeStyle;rounded=1;orthogonalLoop=1;jettySize=auto;html=1;exitX=0;exitY=0.5;exitDx=0;exitDy=0;entryX=0.5;entryY=0;entryDx=0;entryDy=0;" parent="1" source="hwnmMmYKBhUjS9BTgZ3Y-170" edge="1">
          <mxGeometry relative="1" as="geometry">
            <Array as="points">
              <mxPoint x="417" y="290" />
            </Array>
            <mxPoint x="417.0000000000002" y="330" as="targetPoint" />
          </mxGeometry>
        </mxCell>
        <mxCell id="hwnmMmYKBhUjS9BTgZ3Y-160" style="edgeStyle=orthogonalEdgeStyle;rounded=1;orthogonalLoop=1;jettySize=auto;html=1;exitX=0;exitY=0.5;exitDx=0;exitDy=0;entryX=1;entryY=0.5;entryDx=0;entryDy=0;" parent="1" source="hwnmMmYKBhUjS9BTgZ3Y-170" edge="1">
          <mxGeometry relative="1" as="geometry">
            <Array as="points">
              <mxPoint x="547" y="400" />
            </Array>
            <mxPoint x="467.0000000000002" y="400" as="targetPoint" />
          </mxGeometry>
        </mxCell>
        <mxCell id="hwnmMmYKBhUjS9BTgZ3Y-161" style="edgeStyle=orthogonalEdgeStyle;rounded=1;orthogonalLoop=1;jettySize=auto;html=1;exitX=0;exitY=0.5;exitDx=0;exitDy=0;entryX=1;entryY=0.5;entryDx=0;entryDy=0;" parent="1" source="hwnmMmYKBhUjS9BTgZ3Y-170" edge="1">
          <mxGeometry relative="1" as="geometry">
            <Array as="points">
              <mxPoint x="557" y="290" />
              <mxPoint x="557" y="450" />
            </Array>
            <mxPoint x="467.0000000000002" y="450" as="targetPoint" />
          </mxGeometry>
        </mxCell>
        <mxCell id="hwnmMmYKBhUjS9BTgZ3Y-162" style="edgeStyle=orthogonalEdgeStyle;rounded=1;orthogonalLoop=1;jettySize=auto;html=1;exitX=0;exitY=0.5;exitDx=0;exitDy=0;entryX=1;entryY=0.5;entryDx=0;entryDy=0;" parent="1" source="hwnmMmYKBhUjS9BTgZ3Y-170" edge="1">
          <mxGeometry relative="1" as="geometry">
            <Array as="points">
              <mxPoint x="567" y="290" />
              <mxPoint x="567" y="500" />
            </Array>
            <mxPoint x="467.0000000000002" y="500" as="targetPoint" />
          </mxGeometry>
        </mxCell>
        <mxCell id="hwnmMmYKBhUjS9BTgZ3Y-163" style="edgeStyle=orthogonalEdgeStyle;rounded=1;orthogonalLoop=1;jettySize=auto;html=1;exitX=0;exitY=0.5;exitDx=0;exitDy=0;entryX=1;entryY=0.5;entryDx=0;entryDy=0;" parent="1" source="hwnmMmYKBhUjS9BTgZ3Y-170" edge="1">
          <mxGeometry relative="1" as="geometry">
            <Array as="points">
              <mxPoint x="577" y="290" />
              <mxPoint x="577" y="550" />
            </Array>
            <mxPoint x="467.0000000000002" y="550" as="targetPoint" />
          </mxGeometry>
        </mxCell>
        <mxCell id="hwnmMmYKBhUjS9BTgZ3Y-164" style="edgeStyle=orthogonalEdgeStyle;rounded=1;orthogonalLoop=1;jettySize=auto;html=1;exitX=0;exitY=0.5;exitDx=0;exitDy=0;entryX=0.5;entryY=0;entryDx=0;entryDy=0;" parent="1" source="hwnmMmYKBhUjS9BTgZ3Y-170" edge="1">
          <mxGeometry relative="1" as="geometry">
            <Array as="points">
              <mxPoint x="587" y="290" />
            </Array>
            <mxPoint x="587" y="595" as="targetPoint" />
          </mxGeometry>
        </mxCell>
        <mxCell id="hwnmMmYKBhUjS9BTgZ3Y-165" style="edgeStyle=orthogonalEdgeStyle;rounded=1;orthogonalLoop=1;jettySize=auto;html=1;exitX=1;exitY=0.5;exitDx=0;exitDy=0;entryX=0.5;entryY=0;entryDx=0;entryDy=0;" parent="1" source="hwnmMmYKBhUjS9BTgZ3Y-170" edge="1">
          <mxGeometry relative="1" as="geometry">
            <Array as="points">
              <mxPoint x="767" y="290" />
            </Array>
            <mxPoint x="767" y="330" as="targetPoint" />
          </mxGeometry>
        </mxCell>
        <mxCell id="hwnmMmYKBhUjS9BTgZ3Y-166" style="edgeStyle=orthogonalEdgeStyle;rounded=1;orthogonalLoop=1;jettySize=auto;html=1;exitX=1;exitY=0.5;exitDx=0;exitDy=0;entryX=0;entryY=0.5;entryDx=0;entryDy=0;" parent="1" source="hwnmMmYKBhUjS9BTgZ3Y-170" edge="1">
          <mxGeometry relative="1" as="geometry">
            <Array as="points">
              <mxPoint x="627" y="400" />
            </Array>
            <mxPoint x="717" y="400" as="targetPoint" />
          </mxGeometry>
        </mxCell>
        <mxCell id="hwnmMmYKBhUjS9BTgZ3Y-167" style="edgeStyle=orthogonalEdgeStyle;rounded=1;orthogonalLoop=1;jettySize=auto;html=1;exitX=1;exitY=0.5;exitDx=0;exitDy=0;entryX=0;entryY=0.5;entryDx=0;entryDy=0;" parent="1" source="hwnmMmYKBhUjS9BTgZ3Y-170" edge="1">
          <mxGeometry relative="1" as="geometry">
            <Array as="points">
              <mxPoint x="617" y="290" />
              <mxPoint x="617" y="450" />
            </Array>
            <mxPoint x="717" y="450" as="targetPoint" />
          </mxGeometry>
        </mxCell>
        <mxCell id="hwnmMmYKBhUjS9BTgZ3Y-168" style="edgeStyle=orthogonalEdgeStyle;rounded=1;orthogonalLoop=1;jettySize=auto;html=1;exitX=1;exitY=0.5;exitDx=0;exitDy=0;entryX=0;entryY=0.5;entryDx=0;entryDy=0;" parent="1" source="hwnmMmYKBhUjS9BTgZ3Y-170" edge="1">
          <mxGeometry relative="1" as="geometry">
            <Array as="points">
              <mxPoint x="607" y="290" />
              <mxPoint x="607" y="500" />
            </Array>
            <mxPoint x="717" y="500" as="targetPoint" />
          </mxGeometry>
        </mxCell>
        <mxCell id="hwnmMmYKBhUjS9BTgZ3Y-169" style="edgeStyle=orthogonalEdgeStyle;rounded=1;orthogonalLoop=1;jettySize=auto;html=1;exitX=1;exitY=0.5;exitDx=0;exitDy=0;entryX=0;entryY=0.5;entryDx=0;entryDy=0;" parent="1" source="hwnmMmYKBhUjS9BTgZ3Y-170" edge="1">
          <mxGeometry relative="1" as="geometry">
            <Array as="points">
              <mxPoint x="597" y="290" />
              <mxPoint x="597" y="550" />
            </Array>
            <mxPoint x="717" y="550" as="targetPoint" />
          </mxGeometry>
        </mxCell>
        <mxCell id="hwnmMmYKBhUjS9BTgZ3Y-170" value="" style="ellipse;whiteSpace=wrap;html=1;aspect=fixed;rounded=1;fillColor=#d5e8d4;strokeColor=#82b366;" parent="1" vertex="1">
          <mxGeometry x="547" y="250" width="80" height="80" as="geometry" />
        </mxCell>
        <mxCell id="hwnmMmYKBhUjS9BTgZ3Y-182" value="ns1:hasIngredientName" style="text;html=1;strokeColor=none;fillColor=none;align=center;verticalAlign=middle;whiteSpace=wrap;rounded=1;" parent="1" vertex="1">
          <mxGeometry x="667" y="260" width="60" height="30" as="geometry" />
        </mxCell>
        <mxCell id="hwnmMmYKBhUjS9BTgZ3Y-183" value="ns1:hasQuantityOf" style="text;html=1;strokeColor=none;fillColor=none;align=center;verticalAlign=middle;whiteSpace=wrap;rounded=1;" parent="1" vertex="1">
          <mxGeometry x="457" y="260" width="60" height="30" as="geometry" />
        </mxCell>
        <mxCell id="hwnmMmYKBhUjS9BTgZ3Y-184" value="ns1:hasFat" style="text;html=1;strokeColor=none;fillColor=none;align=center;verticalAlign=middle;whiteSpace=wrap;rounded=1;" parent="1" vertex="1">
          <mxGeometry x="477" y="370" width="60" height="30" as="geometry" />
        </mxCell>
        <mxCell id="hwnmMmYKBhUjS9BTgZ3Y-185" value="ns1:hasCarb" style="text;html=1;strokeColor=none;fillColor=none;align=center;verticalAlign=middle;whiteSpace=wrap;rounded=1;" parent="1" vertex="1">
          <mxGeometry x="637" y="370" width="60" height="30" as="geometry" />
        </mxCell>
        <mxCell id="hwnmMmYKBhUjS9BTgZ3Y-186" value="ns1:hasFatness" style="text;html=1;strokeColor=none;fillColor=none;align=center;verticalAlign=middle;whiteSpace=wrap;rounded=1;" parent="1" vertex="1">
          <mxGeometry x="483" y="420" width="60" height="30" as="geometry" />
        </mxCell>
        <mxCell id="hwnmMmYKBhUjS9BTgZ3Y-187" value="ns1:hasProtein" style="text;html=1;strokeColor=none;fillColor=none;align=center;verticalAlign=middle;whiteSpace=wrap;rounded=1;" parent="1" vertex="1">
          <mxGeometry x="637" y="420" width="60" height="30" as="geometry" />
        </mxCell>
        <mxCell id="hwnmMmYKBhUjS9BTgZ3Y-188" value="ns1:hasBitterness" style="text;html=1;strokeColor=none;fillColor=none;align=center;verticalAlign=middle;whiteSpace=wrap;rounded=1;" parent="1" vertex="1">
          <mxGeometry x="488" y="470" width="60" height="30" as="geometry" />
        </mxCell>
        <mxCell id="hwnmMmYKBhUjS9BTgZ3Y-189" value="ns1:hasSaltness" style="text;html=1;strokeColor=none;fillColor=none;align=center;verticalAlign=middle;whiteSpace=wrap;rounded=1;" parent="1" vertex="1">
          <mxGeometry x="627" y="470" width="60" height="30" as="geometry" />
        </mxCell>
        <mxCell id="hwnmMmYKBhUjS9BTgZ3Y-190" value="ns1:hasSourness" style="text;html=1;strokeColor=none;fillColor=none;align=center;verticalAlign=middle;whiteSpace=wrap;rounded=1;" parent="1" vertex="1">
          <mxGeometry x="497" y="520" width="60" height="30" as="geometry" />
        </mxCell>
        <mxCell id="hwnmMmYKBhUjS9BTgZ3Y-191" value="ns1:hasSweetness" style="text;html=1;strokeColor=none;fillColor=none;align=center;verticalAlign=middle;whiteSpace=wrap;rounded=1;" parent="1" vertex="1">
          <mxGeometry x="627" y="520" width="60" height="30" as="geometry" />
        </mxCell>
        <mxCell id="hwnmMmYKBhUjS9BTgZ3Y-192" value="ns1:hasUmaminess" style="text;html=1;strokeColor=none;fillColor=none;align=center;verticalAlign=middle;whiteSpace=wrap;rounded=1;" parent="1" vertex="1">
          <mxGeometry x="617" y="565" width="60" height="30" as="geometry" />
        </mxCell>
        <mxCell id="hwnmMmYKBhUjS9BTgZ3Y-193" value="0.472" style="text;html=1;strokeColor=none;fillColor=none;align=center;verticalAlign=middle;whiteSpace=wrap;rounded=1;" parent="1" vertex="1">
          <mxGeometry x="387" y="345" width="60" height="30" as="geometry" />
        </mxCell>
        <mxCell id="hwnmMmYKBhUjS9BTgZ3Y-194" value="33.0" style="text;html=1;strokeColor=none;fillColor=none;align=center;verticalAlign=middle;whiteSpace=wrap;rounded=1;" parent="1" vertex="1">
          <mxGeometry x="387" y="395" width="60" height="30" as="geometry" />
        </mxCell>
        <mxCell id="hwnmMmYKBhUjS9BTgZ3Y-195" value="29" style="text;html=1;strokeColor=none;fillColor=none;align=center;verticalAlign=middle;whiteSpace=wrap;rounded=1;" parent="1" vertex="1">
          <mxGeometry x="387" y="445" width="60" height="30" as="geometry" />
        </mxCell>
        <mxCell id="hwnmMmYKBhUjS9BTgZ3Y-196" value="1" style="text;html=1;strokeColor=none;fillColor=none;align=center;verticalAlign=middle;whiteSpace=wrap;rounded=1;" parent="1" vertex="1">
          <mxGeometry x="387" y="495" width="60" height="30" as="geometry" />
        </mxCell>
        <mxCell id="hwnmMmYKBhUjS9BTgZ3Y-197" value="7" style="text;html=1;strokeColor=none;fillColor=none;align=center;verticalAlign=middle;whiteSpace=wrap;rounded=1;" parent="1" vertex="1">
          <mxGeometry x="387" y="545" width="60" height="30" as="geometry" />
        </mxCell>
        <mxCell id="hwnmMmYKBhUjS9BTgZ3Y-198" value="chicken" style="text;html=1;strokeColor=none;fillColor=none;align=center;verticalAlign=middle;whiteSpace=wrap;rounded=1;" parent="1" vertex="1">
          <mxGeometry x="737" y="345" width="60" height="30" as="geometry" />
        </mxCell>
        <mxCell id="hwnmMmYKBhUjS9BTgZ3Y-199" value="1.9" style="text;html=1;strokeColor=none;fillColor=none;align=center;verticalAlign=middle;whiteSpace=wrap;rounded=1;" parent="1" vertex="1">
          <mxGeometry x="737" y="395" width="60" height="30" as="geometry" />
        </mxCell>
        <mxCell id="hwnmMmYKBhUjS9BTgZ3Y-200" value="14.0" style="text;html=1;strokeColor=none;fillColor=none;align=center;verticalAlign=middle;whiteSpace=wrap;rounded=1;" parent="1" vertex="1">
          <mxGeometry x="737" y="445" width="60" height="30" as="geometry" />
        </mxCell>
        <mxCell id="hwnmMmYKBhUjS9BTgZ3Y-201" value="18" style="text;html=1;strokeColor=none;fillColor=none;align=center;verticalAlign=middle;whiteSpace=wrap;rounded=1;" parent="1" vertex="1">
          <mxGeometry x="737" y="495" width="60" height="30" as="geometry" />
        </mxCell>
        <mxCell id="hwnmMmYKBhUjS9BTgZ3Y-202" value="6" style="text;html=1;strokeColor=none;fillColor=none;align=center;verticalAlign=middle;whiteSpace=wrap;rounded=1;" parent="1" vertex="1">
          <mxGeometry x="737" y="545" width="60" height="30" as="geometry" />
        </mxCell>
        <mxCell id="hwnmMmYKBhUjS9BTgZ3Y-203" value="13" style="text;html=1;strokeColor=none;fillColor=none;align=center;verticalAlign=middle;whiteSpace=wrap;rounded=1;" parent="1" vertex="1">
          <mxGeometry x="557" y="610" width="60" height="30" as="geometry" />
        </mxCell>
        <mxCell id="N4sue3P5oRfbI1obboS5-12" value="&lt;pre&gt;&lt;font style=&quot;font-size: 8px;&quot;&gt;xsd:float&lt;/font&gt;&lt;/pre&gt;" style="text;html=1;strokeColor=none;fillColor=none;align=center;verticalAlign=middle;whiteSpace=wrap;rounded=1;" vertex="1" parent="1">
          <mxGeometry x="-143" y="370" width="60" height="40" as="geometry" />
        </mxCell>
        <mxCell id="N4sue3P5oRfbI1obboS5-13" value="&lt;pre&gt;&lt;font style=&quot;font-size: 8px;&quot;&gt;xsd:float&lt;/font&gt;&lt;/pre&gt;" style="text;html=1;strokeColor=none;fillColor=none;align=center;verticalAlign=middle;whiteSpace=wrap;rounded=1;" vertex="1" parent="1">
          <mxGeometry x="207" y="370" width="60" height="40" as="geometry" />
        </mxCell>
        <mxCell id="N4sue3P5oRfbI1obboS5-14" value="&lt;pre&gt;&lt;font style=&quot;font-size: 8px;&quot;&gt;xsd:float&lt;/font&gt;&lt;/pre&gt;" style="text;html=1;strokeColor=none;fillColor=none;align=center;verticalAlign=middle;whiteSpace=wrap;rounded=1;" vertex="1" parent="1">
          <mxGeometry x="207" y="420" width="60" height="40" as="geometry" />
        </mxCell>
        <mxCell id="N4sue3P5oRfbI1obboS5-15" value="&lt;pre&gt;&lt;font style=&quot;font-size: 8px;&quot;&gt;xsd:float&lt;/font&gt;&lt;/pre&gt;" style="text;html=1;strokeColor=none;fillColor=none;align=center;verticalAlign=middle;whiteSpace=wrap;rounded=1;" vertex="1" parent="1">
          <mxGeometry x="387" y="320" width="60" height="40" as="geometry" />
        </mxCell>
        <mxCell id="N4sue3P5oRfbI1obboS5-16" value="&lt;pre&gt;&lt;font style=&quot;font-size: 8px;&quot;&gt;xsd:float&lt;/font&gt;&lt;/pre&gt;" style="text;html=1;strokeColor=none;fillColor=none;align=center;verticalAlign=middle;whiteSpace=wrap;rounded=1;" vertex="1" parent="1">
          <mxGeometry x="387" y="370" width="60" height="40" as="geometry" />
        </mxCell>
        <mxCell id="N4sue3P5oRfbI1obboS5-17" value="&lt;pre&gt;&lt;font style=&quot;font-size: 8px;&quot;&gt;xsd:float&lt;/font&gt;&lt;/pre&gt;" style="text;html=1;strokeColor=none;fillColor=none;align=center;verticalAlign=middle;whiteSpace=wrap;rounded=1;" vertex="1" parent="1">
          <mxGeometry x="737" y="370" width="60" height="40" as="geometry" />
        </mxCell>
        <mxCell id="N4sue3P5oRfbI1obboS5-18" value="&lt;pre&gt;&lt;font style=&quot;font-size: 8px;&quot;&gt;xsd:float&lt;/font&gt;&lt;/pre&gt;" style="text;html=1;strokeColor=none;fillColor=none;align=center;verticalAlign=middle;whiteSpace=wrap;rounded=1;" vertex="1" parent="1">
          <mxGeometry x="737" y="420" width="60" height="40" as="geometry" />
        </mxCell>
        <mxCell id="N4sue3P5oRfbI1obboS5-23" value="&lt;pre&gt;&lt;font style=&quot;font-size: 8px;&quot;&gt;xsd:integer&lt;/font&gt;&lt;/pre&gt;" style="text;html=1;strokeColor=none;fillColor=none;align=center;verticalAlign=middle;whiteSpace=wrap;rounded=1;" vertex="1" parent="1">
          <mxGeometry x="-143" y="420" width="60" height="40" as="geometry" />
        </mxCell>
        <mxCell id="N4sue3P5oRfbI1obboS5-24" value="&lt;pre&gt;&lt;font style=&quot;font-size: 8px;&quot;&gt;xsd:integer&lt;/font&gt;&lt;/pre&gt;" style="text;html=1;strokeColor=none;fillColor=none;align=center;verticalAlign=middle;whiteSpace=wrap;rounded=1;" vertex="1" parent="1">
          <mxGeometry x="-143" y="470" width="60" height="40" as="geometry" />
        </mxCell>
        <mxCell id="N4sue3P5oRfbI1obboS5-25" value="&lt;pre&gt;&lt;font style=&quot;font-size: 8px;&quot;&gt;xsd:integer&lt;/font&gt;&lt;/pre&gt;" style="text;html=1;strokeColor=none;fillColor=none;align=center;verticalAlign=middle;whiteSpace=wrap;rounded=1;" vertex="1" parent="1">
          <mxGeometry x="-143" y="520" width="60" height="40" as="geometry" />
        </mxCell>
        <mxCell id="N4sue3P5oRfbI1obboS5-26" value="&lt;pre&gt;&lt;font style=&quot;font-size: 8px;&quot;&gt;xsd:integer&lt;/font&gt;&lt;/pre&gt;" style="text;html=1;strokeColor=none;fillColor=none;align=center;verticalAlign=middle;whiteSpace=wrap;rounded=1;" vertex="1" parent="1">
          <mxGeometry x="207" y="470" width="60" height="40" as="geometry" />
        </mxCell>
        <mxCell id="N4sue3P5oRfbI1obboS5-27" value="&lt;pre&gt;&lt;font style=&quot;font-size: 8px;&quot;&gt;xsd:integer&lt;/font&gt;&lt;/pre&gt;" style="text;html=1;strokeColor=none;fillColor=none;align=center;verticalAlign=middle;whiteSpace=wrap;rounded=1;" vertex="1" parent="1">
          <mxGeometry x="207" y="520" width="60" height="40" as="geometry" />
        </mxCell>
        <mxCell id="N4sue3P5oRfbI1obboS5-28" value="&lt;pre&gt;&lt;font style=&quot;font-size: 8px;&quot;&gt;xsd:integer&lt;/font&gt;&lt;/pre&gt;" style="text;html=1;strokeColor=none;fillColor=none;align=center;verticalAlign=middle;whiteSpace=wrap;rounded=1;" vertex="1" parent="1">
          <mxGeometry x="27" y="580" width="60" height="52.5" as="geometry" />
        </mxCell>
        <mxCell id="N4sue3P5oRfbI1obboS5-29" value="&lt;pre&gt;&lt;font style=&quot;font-size: 8px;&quot;&gt;xsd:string&lt;/font&gt;&lt;/pre&gt;" style="text;html=1;strokeColor=none;fillColor=none;align=center;verticalAlign=middle;whiteSpace=wrap;rounded=1;" vertex="1" parent="1">
          <mxGeometry x="207" y="320" width="60" height="40" as="geometry" />
        </mxCell>
        <mxCell id="N4sue3P5oRfbI1obboS5-30" value="&lt;pre&gt;&lt;font style=&quot;font-size: 8px;&quot;&gt;xsd:string&lt;/font&gt;&lt;/pre&gt;" style="text;html=1;strokeColor=none;fillColor=none;align=center;verticalAlign=middle;whiteSpace=wrap;rounded=1;" vertex="1" parent="1">
          <mxGeometry x="737" y="320" width="60" height="40" as="geometry" />
        </mxCell>
        <mxCell id="N4sue3P5oRfbI1obboS5-31" value="&lt;pre&gt;&lt;font style=&quot;font-size: 8px;&quot;&gt;xsd:integer&lt;/font&gt;&lt;/pre&gt;" style="text;html=1;strokeColor=none;fillColor=none;align=center;verticalAlign=middle;whiteSpace=wrap;rounded=1;" vertex="1" parent="1">
          <mxGeometry x="387" y="420" width="60" height="40" as="geometry" />
        </mxCell>
        <mxCell id="N4sue3P5oRfbI1obboS5-32" value="&lt;pre&gt;&lt;font style=&quot;font-size: 8px;&quot;&gt;xsd:integer&lt;/font&gt;&lt;/pre&gt;" style="text;html=1;strokeColor=none;fillColor=none;align=center;verticalAlign=middle;whiteSpace=wrap;rounded=1;" vertex="1" parent="1">
          <mxGeometry x="387" y="470" width="60" height="40" as="geometry" />
        </mxCell>
        <mxCell id="N4sue3P5oRfbI1obboS5-33" value="&lt;pre&gt;&lt;font style=&quot;font-size: 8px;&quot;&gt;xsd:integer&lt;/font&gt;&lt;/pre&gt;" style="text;html=1;strokeColor=none;fillColor=none;align=center;verticalAlign=middle;whiteSpace=wrap;rounded=1;" vertex="1" parent="1">
          <mxGeometry x="387" y="520" width="60" height="40" as="geometry" />
        </mxCell>
        <mxCell id="N4sue3P5oRfbI1obboS5-34" value="&lt;pre&gt;&lt;font style=&quot;font-size: 8px;&quot;&gt;xsd:integer&lt;/font&gt;&lt;/pre&gt;" style="text;html=1;strokeColor=none;fillColor=none;align=center;verticalAlign=middle;whiteSpace=wrap;rounded=1;" vertex="1" parent="1">
          <mxGeometry x="737" y="470" width="60" height="40" as="geometry" />
        </mxCell>
        <mxCell id="N4sue3P5oRfbI1obboS5-35" value="&lt;pre&gt;&lt;font style=&quot;font-size: 8px;&quot;&gt;xsd:integer&lt;/font&gt;&lt;/pre&gt;" style="text;html=1;strokeColor=none;fillColor=none;align=center;verticalAlign=middle;whiteSpace=wrap;rounded=1;" vertex="1" parent="1">
          <mxGeometry x="737" y="520" width="60" height="40" as="geometry" />
        </mxCell>
        <mxCell id="N4sue3P5oRfbI1obboS5-36" value="&lt;pre&gt;&lt;font style=&quot;font-size: 8px;&quot;&gt;xsd:integer&lt;/font&gt;&lt;/pre&gt;" style="text;html=1;strokeColor=none;fillColor=none;align=center;verticalAlign=middle;whiteSpace=wrap;rounded=1;" vertex="1" parent="1">
          <mxGeometry x="557" y="585" width="60" height="40" as="geometry" />
        </mxCell>
        <mxCell id="N4sue3P5oRfbI1obboS5-68" value="" style="rounded=0;whiteSpace=wrap;html=1;strokeWidth=0.5;" vertex="1" parent="1">
          <mxGeometry x="-173" y="190" width="100" height="20" as="geometry" />
        </mxCell>
        <mxCell id="N4sue3P5oRfbI1obboS5-70" value="&lt;pre&gt;&lt;font style=&quot;font-size: 8px;&quot;&gt;xsd:string&lt;/font&gt;&lt;/pre&gt;" style="text;html=1;strokeColor=none;fillColor=none;align=center;verticalAlign=middle;whiteSpace=wrap;rounded=1;" vertex="1" parent="1">
          <mxGeometry x="-153" y="180" width="60" height="40" as="geometry" />
        </mxCell>
        <mxCell id="N4sue3P5oRfbI1obboS5-72" value="25627" style="text;html=1;strokeColor=#6c8ebf;fillColor=#dae8fc;align=center;verticalAlign=middle;whiteSpace=wrap;rounded=0;glass=0;shadow=0;" vertex="1" parent="1">
          <mxGeometry x="-173" y="210" width="100" height="40" as="geometry" />
        </mxCell>
        <mxCell id="N4sue3P5oRfbI1obboS5-84" value="" style="ellipse;whiteSpace=wrap;html=1;aspect=fixed;rounded=1;fillColor=#fff2cc;strokeColor=#d6b656;" vertex="1" parent="1">
          <mxGeometry x="203" y="131.35" width="20" height="20" as="geometry" />
        </mxCell>
        <mxCell id="N4sue3P5oRfbI1obboS5-85" value="&lt;i&gt;legend&lt;/i&gt;" style="text;html=1;strokeColor=none;fillColor=none;align=center;verticalAlign=middle;whiteSpace=wrap;rounded=0;" vertex="1" parent="1">
          <mxGeometry x="303" y="101.35" width="60" height="30" as="geometry" />
        </mxCell>
        <mxCell id="N4sue3P5oRfbI1obboS5-86" value="" style="ellipse;whiteSpace=wrap;html=1;aspect=fixed;rounded=1;fillColor=#d5e8d4;strokeColor=#82b366;" vertex="1" parent="1">
          <mxGeometry x="296" y="131.35" width="20" height="20" as="geometry" />
        </mxCell>
        <mxCell id="N4sue3P5oRfbI1obboS5-88" value="" style="text;html=1;strokeColor=#6c8ebf;fillColor=#dae8fc;align=center;verticalAlign=middle;whiteSpace=wrap;rounded=0;glass=0;shadow=0;" vertex="1" parent="1">
          <mxGeometry x="393.5" y="131.35" width="20" height="20" as="geometry" />
        </mxCell>
        <mxCell id="N4sue3P5oRfbI1obboS5-89" value="&lt;font style=&quot;font-size: 8px;&quot;&gt;Class: Recipe&lt;/font&gt;" style="text;html=1;strokeColor=none;fillColor=none;align=center;verticalAlign=middle;whiteSpace=wrap;rounded=0;" vertex="1" parent="1">
          <mxGeometry x="223" y="126.35" width="70" height="30" as="geometry" />
        </mxCell>
        <mxCell id="N4sue3P5oRfbI1obboS5-90" value="&lt;font style=&quot;font-size: 8px;&quot;&gt;Class: Ingredient&lt;/font&gt;" style="text;html=1;strokeColor=none;fillColor=none;align=center;verticalAlign=middle;whiteSpace=wrap;rounded=0;" vertex="1" parent="1">
          <mxGeometry x="316" y="126.35" width="80" height="30" as="geometry" />
        </mxCell>
        <mxCell id="N4sue3P5oRfbI1obboS5-91" value="&lt;font style=&quot;font-size: 8px;&quot;&gt;Property&lt;/font&gt;" style="text;html=1;strokeColor=none;fillColor=none;align=center;verticalAlign=middle;whiteSpace=wrap;rounded=0;" vertex="1" parent="1">
          <mxGeometry x="396" y="126.35" width="87" height="30" as="geometry" />
        </mxCell>
        <mxCell id="N4sue3P5oRfbI1obboS5-11" value="&lt;pre&gt;&lt;font style=&quot;font-size: 8px;&quot;&gt;xsd:float&lt;/font&gt;&lt;/pre&gt;" style="text;html=1;strokeColor=none;fillColor=none;align=center;verticalAlign=middle;whiteSpace=wrap;rounded=1;" vertex="1" parent="1">
          <mxGeometry x="-143" y="320" width="60" height="40" as="geometry" />
        </mxCell>
        <mxCell id="N4sue3P5oRfbI1obboS5-95" value="" style="text;html=1;strokeColor=#6c8ebf;fillColor=#dae8fc;align=center;verticalAlign=middle;whiteSpace=wrap;rounded=0;glass=0;shadow=0;" vertex="1" parent="1">
          <mxGeometry x="-163" y="400" width="100" height="20" as="geometry" />
        </mxCell>
        <mxCell id="N4sue3P5oRfbI1obboS5-96" value="" style="text;html=1;strokeColor=#6c8ebf;fillColor=#dae8fc;align=center;verticalAlign=middle;whiteSpace=wrap;rounded=0;glass=0;shadow=0;" vertex="1" parent="1">
          <mxGeometry x="-163" y="450" width="100" height="20" as="geometry" />
        </mxCell>
        <mxCell id="hwnmMmYKBhUjS9BTgZ3Y-148" value="0.5" style="text;html=1;strokeColor=none;fillColor=none;align=center;verticalAlign=middle;whiteSpace=wrap;rounded=1;" parent="1" vertex="1">
          <mxGeometry x="-143" y="390" width="60" height="40" as="geometry" />
        </mxCell>
        <mxCell id="hwnmMmYKBhUjS9BTgZ3Y-149" value="7" style="text;html=1;strokeColor=none;fillColor=none;align=center;verticalAlign=middle;whiteSpace=wrap;rounded=1;" parent="1" vertex="1">
          <mxGeometry x="-143" y="440" width="60" height="40" as="geometry" />
        </mxCell>
        <mxCell id="N4sue3P5oRfbI1obboS5-99" value="" style="text;html=1;strokeColor=#6c8ebf;fillColor=#dae8fc;align=center;verticalAlign=middle;whiteSpace=wrap;rounded=0;glass=0;shadow=0;" vertex="1" parent="1">
          <mxGeometry x="-163" y="500" width="100" height="20" as="geometry" />
        </mxCell>
        <mxCell id="hwnmMmYKBhUjS9BTgZ3Y-150" value="8" style="text;html=1;strokeColor=none;fillColor=none;align=center;verticalAlign=middle;whiteSpace=wrap;rounded=1;" parent="1" vertex="1">
          <mxGeometry x="-143" y="490" width="60" height="40" as="geometry" />
        </mxCell>
        <mxCell id="N4sue3P5oRfbI1obboS5-101" value="" style="text;html=1;strokeColor=#6c8ebf;fillColor=#dae8fc;align=center;verticalAlign=middle;whiteSpace=wrap;rounded=0;glass=0;shadow=0;" vertex="1" parent="1">
          <mxGeometry x="-163" y="550" width="100" height="20" as="geometry" />
        </mxCell>
        <mxCell id="hwnmMmYKBhUjS9BTgZ3Y-151" value="4" style="text;html=1;strokeColor=none;fillColor=none;align=center;verticalAlign=middle;whiteSpace=wrap;rounded=1;" parent="1" vertex="1">
          <mxGeometry x="-143" y="540" width="60" height="40" as="geometry" />
        </mxCell>
        <mxCell id="N4sue3P5oRfbI1obboS5-102" value="" style="text;html=1;strokeColor=#6c8ebf;fillColor=#dae8fc;align=center;verticalAlign=middle;whiteSpace=wrap;rounded=0;glass=0;shadow=0;" vertex="1" parent="1">
          <mxGeometry x="7" y="615" width="100" height="20" as="geometry" />
        </mxCell>
        <mxCell id="hwnmMmYKBhUjS9BTgZ3Y-158" value="3" style="text;html=1;strokeColor=none;fillColor=none;align=center;verticalAlign=middle;whiteSpace=wrap;rounded=1;" parent="1" vertex="1">
          <mxGeometry x="27" y="610" width="60" height="30" as="geometry" />
        </mxCell>
        <mxCell id="N4sue3P5oRfbI1obboS5-154" value="" style="rounded=0;whiteSpace=wrap;html=1;strokeWidth=0.5;" vertex="1" parent="1">
          <mxGeometry x="727.5" y="190" width="100" height="20" as="geometry" />
        </mxCell>
        <mxCell id="N4sue3P5oRfbI1obboS5-155" value="&lt;pre&gt;&lt;font style=&quot;font-size: 8px;&quot;&gt;xsd:string&lt;/font&gt;&lt;/pre&gt;" style="text;html=1;strokeColor=none;fillColor=none;align=center;verticalAlign=middle;whiteSpace=wrap;rounded=1;" vertex="1" parent="1">
          <mxGeometry x="747.5" y="180" width="60" height="40" as="geometry" />
        </mxCell>
        <mxCell id="N4sue3P5oRfbI1obboS5-156" value="Plain Flour&lt;br style=&quot;border-color: var(--border-color);&quot;&gt;Dumplings" style="text;html=1;strokeColor=#6c8ebf;fillColor=#dae8fc;align=center;verticalAlign=middle;whiteSpace=wrap;rounded=0;glass=0;shadow=0;" vertex="1" parent="1">
          <mxGeometry x="727.5" y="210" width="100" height="40" as="geometry" />
        </mxCell>
      </root>
    </mxGraphModel>
  </diagram>
</mxfile>
